# Blender 5.0.1
# www.blender.org
mtllib boid.mtl
o Cube
v 0.000000 0.000000 -0.579639
v 0.207028 0.171488 0.641447
v 0.207028 -0.171488 0.641447
v -0.207028 0.171488 0.641447
v -0.207028 -0.171488 0.641447
vn -0.0000 0.9903 -0.1391
vn -0.0000 -0.0000 1.0000
vn -0.9859 -0.0000 -0.1672
vn -0.0000 -0.9903 -0.1391
vn 0.9859 -0.0000 -0.1672
vt 0.875000 0.500000
vt 0.875000 0.750000
vt 0.625000 0.750000
vt 0.375000 0.750000
vt 0.625000 1.000000
vt 0.375000 1.000000
vt 0.375000 0.000000
vt 0.625000 0.000000
vt 0.375000 0.250000
vt 0.375000 0.500000
vt 0.125000 0.750000
vt 0.625000 0.500000
s 0
usemtl Material
f 1/1/1 4/2/1 2/3/1
f 3/4/2 2/3/2 4/5/2 5/6/2
f 5/7/3 4/8/3 1/9/3
f 1/10/4 3/4/4 5/11/4
f 1/12/5 2/3/5 3/4/5
